<?xml version="1.0" encoding="utf-8"?>
<!-- Generator: Adobe Illustrator 22.1.0, SVG Export Plug-In . SVG Version: 6.00 Build 0)  -->
<svg version="1.1" id="Camada_1" xmlns="http://www.w3.org/2000/svg" xmlns:xlink="http://www.w3.org/1999/xlink" x="0px" y="0px"
	 viewBox="0 0 841.9 595.3" style="enable-background:new 0 0 841.9 595.3;" xml:space="preserve">
<style type="text/css">
	.st0{fill:url(#SVGID_1_);}
	.st1{fill:url(#SVGID_2_);}
	.st2{fill:url(#SVGID_3_);}
	.st3{fill:url(#SVGID_4_);}
	.st4{fill:url(#SVGID_5_);}
	.st5{fill:url(#SVGID_6_);}
	.st6{fill:url(#SVGID_7_);}
	.st7{fill:url(#SVGID_8_);}
	.st8{fill:url(#SVGID_9_);}
	.st9{fill:url(#SVGID_10_);}
</style>
<g>
	<radialGradient id="SVGID_1_" cx="335.5258" cy="231.4983" r="310.9757" gradientUnits="userSpaceOnUse">
		<stop  offset="0" style="stop-color:#E7286C"/>
		<stop  offset="7.916572e-02" style="stop-color:#E42A6D"/>
		<stop  offset="0.1765" style="stop-color:#DB2F71"/>
		<stop  offset="0.2834" style="stop-color:#CC3576"/>
		<stop  offset="0.3971" style="stop-color:#B63B7D"/>
		<stop  offset="0.5149" style="stop-color:#984186"/>
		<stop  offset="0.5829" style="stop-color:#81448C"/>
		<stop  offset="0.661" style="stop-color:#7F649E"/>
		<stop  offset="0.827" style="stop-color:#779CBF"/>
		<stop  offset="0.9437" style="stop-color:#70BACF"/>
		<stop  offset="1" style="stop-color:#6DC5D4"/>
	</radialGradient>
	<path class="st0" d="M594.5,307.6c-14.1,0-25.6,11.5-25.6,25.6c0,8.2,3.9,15.5,9.9,20.2c-28.4,57.9-88,97.9-156.8,97.9
		c-96.3,0-174.6-78.3-174.6-174.6c0-96.3,78.3-174.6,174.6-174.6c66.6,0,124.7,37.5,154.1,92.6c-5.7,4.7-9.4,11.8-9.4,19.8
		c0,14.1,11.5,25.6,25.6,25.6c14.1,0,25.6-11.5,25.6-25.6c0-10.2-6.1-19.1-14.8-23.2C571,123.5,501.9,76.5,422,76.5
		c-110.4,0-200.2,89.8-200.2,200.2c0,110.4,89.8,200.2,200.2,200.2c82.2,0,153-49.8,183.7-120.8c8.4-4.2,14.2-12.9,14.2-22.9
		C620,319.1,608.5,307.6,594.5,307.6z M584.8,198.2c2.3-1.1,4.8-1.7,7.5-1.7c2.7,0,5.2,0.6,7.5,1.7c6.1,2.8,10.4,9,10.4,16.2
		c0,9.9-8,17.9-17.9,17.9c-9.9,0-17.9-8-17.9-17.9C574.4,207.3,578.7,201.1,584.8,198.2z M600.9,349.8c-2,0.8-4.2,1.2-6.5,1.2
		c-2.3,0-4.5-0.4-6.5-1.2c-6.7-2.6-11.4-9.1-11.4-16.7c0-9.9,8-17.9,17.9-17.9c9.9,0,17.9,8,17.9,17.9
		C612.3,340.8,607.6,347.2,600.9,349.8z"/>
	<g>
		<radialGradient id="SVGID_2_" cx="394.6544" cy="129.979" r="91.502" gradientUnits="userSpaceOnUse">
			<stop  offset="0" style="stop-color:#E7286C"/>
			<stop  offset="0.1857" style="stop-color:#E6286D"/>
			<stop  offset="0.2672" style="stop-color:#E22B6E"/>
			<stop  offset="0.3283" style="stop-color:#DA2F71"/>
			<stop  offset="0.3793" style="stop-color:#D03475"/>
			<stop  offset="0.4239" style="stop-color:#C2397B"/>
			<stop  offset="0.4641" style="stop-color:#AF3D81"/>
			<stop  offset="0.501" style="stop-color:#974188"/>
			<stop  offset="0.5343" style="stop-color:#78448F"/>
			<stop  offset="0.5622" style="stop-color:#554696"/>
			<stop  offset="0.6092" style="stop-color:#564A99"/>
			<stop  offset="0.6731" style="stop-color:#56569F"/>
			<stop  offset="0.7466" style="stop-color:#5869AA"/>
			<stop  offset="0.8272" style="stop-color:#5A82B8"/>
			<stop  offset="0.9136" style="stop-color:#60A2C7"/>
			<stop  offset="1" style="stop-color:#6DC5D4"/>
		</radialGradient>
		<path class="st1" d="M420.9,122.9c-10.4,0-18.9,8.5-18.9,18.9c0,9.1,6.5,16.7,15,18.5v62c0,2.1,1.7,3.8,3.8,3.8
			c2.1,0,3.8-1.7,3.8-3.8v-62c8.6-1.8,15-9.4,15-18.5C439.8,131.4,431.3,122.9,420.9,122.9z M420.9,153c-6.2,0-11.2-5-11.2-11.2
			c0-6.2,5-11.2,11.2-11.2c6.2,0,11.2,5,11.2,11.2C432.1,148,427.1,153,420.9,153z"/>
		<radialGradient id="SVGID_3_" cx="305.0785" cy="248.9869" r="59.9665" gradientUnits="userSpaceOnUse">
			<stop  offset="0" style="stop-color:#E7286C"/>
			<stop  offset="0.1026" style="stop-color:#E5296D"/>
			<stop  offset="0.1853" style="stop-color:#E02C6F"/>
			<stop  offset="0.2612" style="stop-color:#D63173"/>
			<stop  offset="0.333" style="stop-color:#C73779"/>
			<stop  offset="0.4018" style="stop-color:#B33C7F"/>
			<stop  offset="0.4685" style="stop-color:#994187"/>
			<stop  offset="0.5322" style="stop-color:#764590"/>
			<stop  offset="0.5777" style="stop-color:#554696"/>
			<stop  offset="0.6241" style="stop-color:#564F9C"/>
			<stop  offset="0.7106" style="stop-color:#5867A9"/>
			<stop  offset="0.8279" style="stop-color:#5C8CBD"/>
			<stop  offset="0.9701" style="stop-color:#69BBD0"/>
			<stop  offset="1" style="stop-color:#6DC5D4"/>
		</radialGradient>
		<path class="st2" d="M366.6,272.8h-62c-1.8-8.6-9.4-15-18.5-15c-10.4,0-18.9,8.5-18.9,18.9c0,10.4,8.5,18.9,18.9,18.9
			c9.1,0,16.7-6.5,18.5-15h62c2.1,0,3.8-1.7,3.8-3.8C370.4,274.6,368.7,272.8,366.6,272.8z M286.1,287.9c-6.2,0-11.2-5-11.2-11.2
			c0-6.2,5-11.2,11.2-11.2c6.2,0,11.2,5,11.2,11.2C297.3,282.8,292.2,287.9,286.1,287.9z"/>
		<radialGradient id="SVGID_4_" cx="613.4753" cy="274.58" r="71.7064" gradientUnits="userSpaceOnUse">
			<stop  offset="0" style="stop-color:#E7286C"/>
			<stop  offset="0.1966" style="stop-color:#E6296D"/>
			<stop  offset="0.3124" style="stop-color:#E12C6F"/>
			<stop  offset="0.4073" style="stop-color:#D93072"/>
			<stop  offset="0.4909" style="stop-color:#CD3577"/>
			<stop  offset="0.5671" style="stop-color:#BD3A7C"/>
			<stop  offset="0.6378" style="stop-color:#A73F83"/>
			<stop  offset="0.7044" style="stop-color:#8B438B"/>
			<stop  offset="0.766" style="stop-color:#674593"/>
			<stop  offset="0.7902" style="stop-color:#554696"/>
			<stop  offset="0.8113" style="stop-color:#564C9A"/>
			<stop  offset="0.8451" style="stop-color:#575BA2"/>
			<stop  offset="0.8872" style="stop-color:#5974B1"/>
			<stop  offset="0.9361" style="stop-color:#5E96C2"/>
			<stop  offset="0.99" style="stop-color:#6ABDD1"/>
			<stop  offset="1" style="stop-color:#6DC5D4"/>
		</radialGradient>
		<path class="st3" d="M555.8,257.8c-9.1,0-16.7,6.5-18.5,15h-62c-2.1,0-3.8,1.7-3.8,3.8c0,2.1,1.7,3.8,3.8,3.8h62
			c1.8,8.6,9.4,15,18.5,15c10.4,0,18.9-8.5,18.9-18.9C574.7,266.3,566.2,257.8,555.8,257.8z M555.8,287.9c-6.2,0-11.2-5-11.2-11.2
			c0-6.2,5-11.2,11.2-11.2c6.2,0,11.2,5,11.2,11.2C567,282.8,562,287.9,555.8,287.9z"/>
		<radialGradient id="SVGID_5_" cx="667.2208" cy="374.8197" r="270.6758" gradientUnits="userSpaceOnUse">
			<stop  offset="0" style="stop-color:#E7286C"/>
			<stop  offset="0.1198" style="stop-color:#E6296D"/>
			<stop  offset="0.193" style="stop-color:#E12C6F"/>
			<stop  offset="0.2537" style="stop-color:#D83072"/>
			<stop  offset="0.3076" style="stop-color:#CC3577"/>
			<stop  offset="0.3569" style="stop-color:#BC3A7D"/>
			<stop  offset="0.403" style="stop-color:#A63F83"/>
			<stop  offset="0.4465" style="stop-color:#89438B"/>
			<stop  offset="0.4869" style="stop-color:#644594"/>
			<stop  offset="0.5" style="stop-color:#554696"/>
			<stop  offset="0.5537" style="stop-color:#564A99"/>
			<stop  offset="0.6267" style="stop-color:#56569F"/>
			<stop  offset="0.7106" style="stop-color:#5869AA"/>
			<stop  offset="0.8027" style="stop-color:#5A82B8"/>
			<stop  offset="0.9013" style="stop-color:#60A2C7"/>
			<stop  offset="1" style="stop-color:#6DC5D4"/>
		</radialGradient>
		<path class="st4" d="M622.2,451.3c-6.4-6.4-16.4-7.2-23.7-2.4L462.1,312.4c-1.5-1.5-3.9-1.5-5.4,0c-1.5,1.5-1.5,3.9,0,5.4
			l136.4,136.4c-4.8,7.3-4,17.3,2.4,23.7c3.7,3.7,8.5,5.5,13.3,5.5c4.8,0,9.7-1.8,13.3-5.5c3.7-3.7,5.5-8.5,5.5-13.3
			C627.7,459.8,625.9,454.9,622.2,451.3z M616.8,472.5c-4.4,4.4-11.5,4.4-15.8,0c-4.4-4.4-4.4-11.5,0-15.8c2.2-2.2,5-3.3,7.9-3.3
			c2.9,0,5.7,1.1,7.9,3.3C621.1,461.1,621.1,468.2,616.8,472.5z"/>
		<radialGradient id="SVGID_6_" cx="227.157" cy="85.3222" r="204.0877" gradientUnits="userSpaceOnUse">
			<stop  offset="0" style="stop-color:#E7286C"/>
			<stop  offset="8.693440e-02" style="stop-color:#E5296D"/>
			<stop  offset="0.1584" style="stop-color:#DF2D6F"/>
			<stop  offset="0.2244" style="stop-color:#D53273"/>
			<stop  offset="0.2872" style="stop-color:#C73779"/>
			<stop  offset="0.3476" style="stop-color:#B33C7F"/>
			<stop  offset="0.4063" style="stop-color:#984187"/>
			<stop  offset="0.4625" style="stop-color:#744590"/>
			<stop  offset="0.5" style="stop-color:#554696"/>
			<stop  offset="0.5537" style="stop-color:#564A99"/>
			<stop  offset="0.6267" style="stop-color:#56569F"/>
			<stop  offset="0.7106" style="stop-color:#5869AA"/>
			<stop  offset="0.8027" style="stop-color:#5A82B8"/>
			<stop  offset="0.9013" style="stop-color:#60A2C7"/>
			<stop  offset="1" style="stop-color:#6DC5D4"/>
		</radialGradient>
		<path class="st5" d="M385.2,235.5L248.8,99.1c4.8-7.3,4-17.3-2.4-23.7c-7.4-7.4-19.3-7.4-26.7,0c-3.6,3.6-5.5,8.3-5.5,13.3
			c0,5,2,9.8,5.5,13.3c3.7,3.7,8.5,5.5,13.3,5.5c3.6,0,7.2-1,10.4-3.1l136.4,136.4c0.7,0.8,1.7,1.1,2.7,1.1c1,0,2-0.4,2.7-1.1
			C386.7,239.4,386.7,237,385.2,235.5z M225.1,96.7c-2.1-2.1-3.3-4.9-3.3-7.9c0-3,1.2-5.8,3.3-7.9c2.2-2.2,5-3.3,7.9-3.3
			c2.9,0,5.7,1.1,7.9,3.3c4.4,4.4,4.4,11.5,0,15.8C236.6,101,229.5,101,225.1,96.7z"/>
		<radialGradient id="SVGID_7_" cx="223.1806" cy="393.5879" r="136.9769" gradientUnits="userSpaceOnUse">
			<stop  offset="0" style="stop-color:#E7286C"/>
			<stop  offset="0.114" style="stop-color:#E5296D"/>
			<stop  offset="0.2077" style="stop-color:#DF2D6F"/>
			<stop  offset="0.2942" style="stop-color:#D53273"/>
			<stop  offset="0.3765" style="stop-color:#C73779"/>
			<stop  offset="0.4557" style="stop-color:#B33C7F"/>
			<stop  offset="0.5326" style="stop-color:#984187"/>
			<stop  offset="0.6063" style="stop-color:#744590"/>
			<stop  offset="0.6554" style="stop-color:#554696"/>
			<stop  offset="0.6925" style="stop-color:#564A99"/>
			<stop  offset="0.7427" style="stop-color:#56569F"/>
			<stop  offset="0.8005" style="stop-color:#5869AA"/>
			<stop  offset="0.864" style="stop-color:#5A82B8"/>
			<stop  offset="0.932" style="stop-color:#60A2C7"/>
			<stop  offset="1" style="stop-color:#6DC5D4"/>
		</radialGradient>
		<path class="st6" d="M385.2,312.4c-1.5-1.5-3.9-1.5-5.4,0L243.4,448.8c-7.3-4.8-17.3-4-23.7,2.4c-7.4,7.4-7.4,19.3,0,26.7
			c3.7,3.7,8.5,5.5,13.3,5.5c2.4,0,4.8-0.5,7.1-1.4c2.3-0.9,4.4-2.3,6.2-4.1c6.4-6.4,7.3-16.4,2.4-23.7l136.4-136.4
			C386.7,316.3,386.7,313.9,385.2,312.4z M240.9,472.5c-4.4,4.4-11.5,4.4-15.8,0c-4.4-4.4-4.4-11.5,0-15.8c2.2-2.2,5-3.3,7.9-3.3
			c2.9,0,5.7,1.1,7.9,3.3c2.2,2.2,3.3,5.1,3.3,7.9S243.1,470.3,240.9,472.5z"/>
		<radialGradient id="SVGID_8_" cx="526.5812" cy="204.3242" r="145.2787" gradientUnits="userSpaceOnUse">
			<stop  offset="0" style="stop-color:#E7286C"/>
			<stop  offset="6.382947e-02" style="stop-color:#E42A6E"/>
			<stop  offset="0.1427" style="stop-color:#DB2F71"/>
			<stop  offset="0.2295" style="stop-color:#CC3577"/>
			<stop  offset="0.322" style="stop-color:#B63B7E"/>
			<stop  offset="0.419" style="stop-color:#974188"/>
			<stop  offset="0.5184" style="stop-color:#6B4592"/>
			<stop  offset="0.557" style="stop-color:#554696"/>
			<stop  offset="0.6046" style="stop-color:#564A99"/>
			<stop  offset="0.6692" style="stop-color:#56569F"/>
			<stop  offset="0.7436" style="stop-color:#5869AA"/>
			<stop  offset="0.8252" style="stop-color:#5A82B8"/>
			<stop  offset="0.9126" style="stop-color:#60A2C7"/>
			<stop  offset="1" style="stop-color:#6DC5D4"/>
		</radialGradient>
		<path class="st7" d="M622.2,75.4c-7.4-7.4-19.3-7.4-26.7,0c-6.4,6.4-7.3,16.4-2.4,23.7L456.6,235.6c-1.5,1.5-1.5,3.9,0,5.4
			c0.8,0.8,1.7,1.1,2.7,1.1c1,0,2-0.4,2.7-1.1l136.5-136.5c3.1,2.1,6.7,3.1,10.4,3.1c2.4,0,4.8-0.5,7.1-1.4c2.3-0.9,4.4-2.3,6.2-4.1
			c3.6-3.6,5.5-8.3,5.5-13.3C627.7,83.7,625.8,79,622.2,75.4z M616.8,96.7L616.8,96.7c-4.4,4.4-11.5,4.4-15.8,0
			c-4.4-4.4-4.4-11.5,0-15.8c2.2-2.2,5-3.3,7.9-3.3c2.9,0,5.7,1.1,7.9,3.3c2.1,2.1,3.3,4.9,3.3,7.9
			C620.1,91.7,618.9,94.5,616.8,96.7z"/>
		<radialGradient id="SVGID_9_" cx="447.1202" cy="417.9014" r="82.6146" gradientUnits="userSpaceOnUse">
			<stop  offset="0" style="stop-color:#E7286C"/>
			<stop  offset="0.13" style="stop-color:#E6296D"/>
			<stop  offset="0.2108" style="stop-color:#E12C6F"/>
			<stop  offset="0.2781" style="stop-color:#D83072"/>
			<stop  offset="0.338" style="stop-color:#CC3577"/>
			<stop  offset="0.393" style="stop-color:#BB3A7D"/>
			<stop  offset="0.4445" style="stop-color:#A53F83"/>
			<stop  offset="0.4932" style="stop-color:#88438B"/>
			<stop  offset="0.5385" style="stop-color:#634594"/>
			<stop  offset="0.5518" style="stop-color:#554696"/>
			<stop  offset="0.6" style="stop-color:#564A99"/>
			<stop  offset="0.6653" style="stop-color:#56569F"/>
			<stop  offset="0.7406" style="stop-color:#5869AA"/>
			<stop  offset="0.8232" style="stop-color:#5A82B8"/>
			<stop  offset="0.9116" style="stop-color:#60A2C7"/>
			<stop  offset="1" style="stop-color:#6DC5D4"/>
		</radialGradient>
		<path class="st8" d="M449.1,501.1c0,2.1-1.7,3.8-3.8,3.8h-20.5v16.7c0,2.1-1.7,3.8-3.8,3.8c-2.1,0-3.8-1.7-3.8-3.8v-16.7h-20.5
			c-2.1,0-3.8-1.7-3.8-3.8c0-2.1,1.7-3.8,3.8-3.8h20.5V331c0-2.1,1.7-3.8,3.8-3.8c2.1,0,3.8,1.7,3.8,3.8v166.2h20.5
			C447.4,497.2,449.1,498.9,449.1,501.1z"/>
		<radialGradient id="SVGID_10_" cx="520.4871" cy="254.5321" r="125.2087" gradientUnits="userSpaceOnUse">
			<stop  offset="0" style="stop-color:#E7286C"/>
			<stop  offset="0.195" style="stop-color:#E6286D"/>
			<stop  offset="0.2653" style="stop-color:#E22B6E"/>
			<stop  offset="0.3154" style="stop-color:#DB2F71"/>
			<stop  offset="0.3559" style="stop-color:#D13375"/>
			<stop  offset="0.3906" style="stop-color:#C4387A"/>
			<stop  offset="0.4213" style="stop-color:#B23C7F"/>
			<stop  offset="0.449" style="stop-color:#9C4186"/>
			<stop  offset="0.4745" style="stop-color:#7F448E"/>
			<stop  offset="0.4972" style="stop-color:#5B4695"/>
			<stop  offset="0.5" style="stop-color:#554696"/>
			<stop  offset="0.5537" style="stop-color:#564A99"/>
			<stop  offset="0.6267" style="stop-color:#56569F"/>
			<stop  offset="0.7106" style="stop-color:#5869AA"/>
			<stop  offset="0.8027" style="stop-color:#5A82B8"/>
			<stop  offset="0.9013" style="stop-color:#60A2C7"/>
			<stop  offset="1" style="stop-color:#6DC5D4"/>
		</radialGradient>
		<path class="st9" d="M420.9,334.9c-32.1,0-58.2-26.1-58.2-58.2s26.1-58.2,58.2-58.2s58.2,26.1,58.2,58.2S453,334.9,420.9,334.9z
			 M420.9,226.2c-27.8,0-50.5,22.7-50.5,50.5c0,27.8,22.7,50.5,50.5,50.5s50.5-22.7,50.5-50.5C471.4,248.8,448.8,226.2,420.9,226.2z
			"/>
	</g>
</g>
</svg>
